<mxfile host="65bd71144e">
    <diagram id="Kskh3yuvQKe4s_Mfo4YT" name="Page-1">
        <mxGraphModel dx="1050" dy="1017" grid="1" gridSize="10" guides="1" tooltips="1" connect="1" arrows="1" fold="1" page="1" pageScale="1" pageWidth="850" pageHeight="1100" math="0" shadow="0">
            <root>
                <mxCell id="0"/>
                <mxCell id="1" parent="0"/>
                <mxCell id="50" style="edgeStyle=orthogonalEdgeStyle;html=1;exitX=1;exitY=0.5;exitDx=0;exitDy=0;fontSize=21;fontColor=#000000;endArrow=open;endFill=0;endSize=16;entryX=0.011;entryY=0.285;entryDx=0;entryDy=0;entryPerimeter=0;" edge="1" parent="1" source="33" target="41">
                    <mxGeometry relative="1" as="geometry">
                        <mxPoint x="210" y="170" as="targetPoint"/>
                    </mxGeometry>
                </mxCell>
                <mxCell id="33" value="" style="rounded=1;whiteSpace=wrap;html=1;fontSize=50;strokeColor=#000000;arcSize=11;fillColor=#60a917;fontColor=#ffffff;" vertex="1" parent="1">
                    <mxGeometry x="40" y="40" width="120" height="100" as="geometry"/>
                </mxCell>
                <mxCell id="34" value="&lt;font style=&quot;font-size: 41px;&quot;&gt;P( θ&lt;span style=&quot;font-size: 41px;&quot;&gt;&lt;sub style=&quot;font-size: 41px;&quot;&gt;&amp;nbsp;&lt;/sub&gt;&lt;/span&gt;)&lt;/font&gt;" style="text;html=1;strokeColor=none;fillColor=none;align=center;verticalAlign=middle;whiteSpace=wrap;rounded=0;fontSize=41;fontColor=#000000;" vertex="1" parent="1">
                    <mxGeometry x="40" y="40" width="120" height="60" as="geometry"/>
                </mxCell>
                <mxCell id="35" value="Prior" style="text;html=1;strokeColor=none;fillColor=none;align=center;verticalAlign=middle;whiteSpace=wrap;rounded=0;fontSize=30;fontColor=#000000;" vertex="1" parent="1">
                    <mxGeometry x="70" y="100" width="60" height="30" as="geometry"/>
                </mxCell>
                <mxCell id="51" style="edgeStyle=orthogonalEdgeStyle;html=1;exitX=1;exitY=0.5;exitDx=0;exitDy=0;fontSize=21;fontColor=#000000;endArrow=open;endFill=0;endSize=16;entryX=0;entryY=0.75;entryDx=0;entryDy=0;" edge="1" parent="1" source="36" target="41">
                    <mxGeometry relative="1" as="geometry">
                        <mxPoint x="200" y="190" as="targetPoint"/>
                    </mxGeometry>
                </mxCell>
                <mxCell id="36" value="" style="rounded=1;whiteSpace=wrap;html=1;fontSize=50;strokeColor=#000000;arcSize=11;fillColor=#0050ef;fontColor=#ffffff;" vertex="1" parent="1">
                    <mxGeometry x="40" y="200" width="120" height="170" as="geometry"/>
                </mxCell>
                <mxCell id="37" value="&lt;u&gt;x&lt;/u&gt;&lt;sub&gt;0&lt;/sub&gt;" style="text;html=1;strokeColor=none;fillColor=none;align=center;verticalAlign=middle;whiteSpace=wrap;rounded=0;fontSize=30;fontColor=#000000;" vertex="1" parent="1">
                    <mxGeometry x="50" y="250" width="100" height="30" as="geometry"/>
                </mxCell>
                <mxCell id="38" value="&lt;span style=&quot;font-size: 21px;&quot;&gt;New Evidence&lt;/span&gt;" style="text;html=1;strokeColor=none;fillColor=none;align=center;verticalAlign=middle;whiteSpace=wrap;rounded=0;fontSize=21;fontColor=#000000;" vertex="1" parent="1">
                    <mxGeometry x="40" y="200" width="120" height="50" as="geometry"/>
                </mxCell>
                <mxCell id="39" value="&lt;span style=&quot;font-size: 21px&quot;&gt;Likelihood&lt;/span&gt;" style="text;html=1;strokeColor=none;fillColor=none;align=center;verticalAlign=middle;whiteSpace=wrap;rounded=0;fontSize=21;fontColor=#000000;" vertex="1" parent="1">
                    <mxGeometry x="40" y="340" width="120" height="30" as="geometry"/>
                </mxCell>
                <mxCell id="40" value="&lt;font style=&quot;font-size: 24px&quot;&gt;P( &lt;u&gt;x&lt;/u&gt;&lt;sub&gt;0&lt;/sub&gt;&lt;sub style=&quot;font-size: 24px&quot;&gt;&amp;nbsp;&lt;/sub&gt;| θ )&lt;/font&gt;" style="text;html=1;strokeColor=none;fillColor=none;align=center;verticalAlign=middle;whiteSpace=wrap;rounded=0;fontSize=24;fontColor=#000000;" vertex="1" parent="1">
                    <mxGeometry x="45" y="310" width="110" height="30" as="geometry"/>
                </mxCell>
                <mxCell id="53" style="edgeStyle=orthogonalEdgeStyle;html=1;exitX=1;exitY=0.5;exitDx=0;exitDy=0;fontSize=21;fontColor=#000000;endArrow=open;endFill=0;endSize=16;entryX=0;entryY=0.5;entryDx=0;entryDy=0;" edge="1" parent="1" source="41" target="47">
                    <mxGeometry relative="1" as="geometry">
                        <mxPoint x="360" y="90" as="targetPoint"/>
                    </mxGeometry>
                </mxCell>
                <mxCell id="41" value="" style="rounded=1;whiteSpace=wrap;html=1;fontSize=50;strokeColor=#000000;arcSize=11;fillColor=#a20025;fontColor=#ffffff;" vertex="1" parent="1">
                    <mxGeometry x="220" y="120" width="120" height="100" as="geometry"/>
                </mxCell>
                <mxCell id="42" value="&lt;span style=&quot;font-size: 21px&quot;&gt;Posterior&lt;/span&gt;" style="text;html=1;strokeColor=none;fillColor=none;align=center;verticalAlign=middle;whiteSpace=wrap;rounded=0;fontSize=21;fontColor=#000000;" vertex="1" parent="1">
                    <mxGeometry x="220" y="180" width="120" height="30" as="geometry"/>
                </mxCell>
                <mxCell id="43" value="&lt;font style=&quot;font-size: 24px&quot;&gt;P( θ&lt;sub style=&quot;font-size: 24px&quot;&gt;&amp;nbsp;&lt;/sub&gt;&lt;span style=&quot;font-size: 24px&quot;&gt;| &lt;u&gt;x&lt;/u&gt;&lt;sub&gt;0&amp;nbsp;&lt;/sub&gt;&lt;/span&gt;)&lt;/font&gt;" style="text;html=1;strokeColor=none;fillColor=none;align=center;verticalAlign=middle;whiteSpace=wrap;rounded=0;fontSize=24;fontColor=#000000;" vertex="1" parent="1">
                    <mxGeometry x="220" y="140" width="120" height="30" as="geometry"/>
                </mxCell>
                <mxCell id="62" style="edgeStyle=orthogonalEdgeStyle;html=1;exitX=1;exitY=0.5;exitDx=0;exitDy=0;fontSize=21;fontColor=#000000;endArrow=open;endFill=0;endSize=16;entryX=0;entryY=0.25;entryDx=0;entryDy=0;" edge="1" parent="1" source="47" target="59">
                    <mxGeometry relative="1" as="geometry">
                        <mxPoint x="530" y="180" as="targetPoint"/>
                    </mxGeometry>
                </mxCell>
                <mxCell id="47" value="" style="rounded=1;whiteSpace=wrap;html=1;fontSize=50;strokeColor=#000000;arcSize=11;fillColor=#60a917;fontColor=#ffffff;" vertex="1" parent="1">
                    <mxGeometry x="400" y="40" width="120" height="100" as="geometry"/>
                </mxCell>
                <mxCell id="48" value="&lt;span style=&quot;font-size: 24px&quot;&gt;P( θ&lt;/span&gt;&lt;sub style=&quot;font-size: 24px&quot;&gt;&amp;nbsp;&lt;/sub&gt;&lt;span style=&quot;font-size: 24px&quot;&gt;|&amp;nbsp;&lt;u&gt;x&lt;/u&gt;&lt;sub&gt;0&amp;nbsp;&lt;/sub&gt;&lt;/span&gt;&lt;span style=&quot;font-size: 24px&quot;&gt;)&lt;/span&gt;" style="text;html=1;strokeColor=none;fillColor=none;align=center;verticalAlign=middle;whiteSpace=wrap;rounded=0;fontSize=41;fontColor=#000000;" vertex="1" parent="1">
                    <mxGeometry x="405" y="40" width="110" height="60" as="geometry"/>
                </mxCell>
                <mxCell id="49" value="Prior" style="text;html=1;strokeColor=none;fillColor=none;align=center;verticalAlign=middle;whiteSpace=wrap;rounded=0;fontSize=30;fontColor=#000000;" vertex="1" parent="1">
                    <mxGeometry x="430" y="100" width="60" height="30" as="geometry"/>
                </mxCell>
                <mxCell id="64" style="edgeStyle=orthogonalEdgeStyle;html=1;exitX=1;exitY=0.5;exitDx=0;exitDy=0;entryX=0;entryY=0.75;entryDx=0;entryDy=0;fontSize=21;fontColor=#000000;endArrow=open;endFill=0;endSize=16;" edge="1" parent="1" source="54" target="59">
                    <mxGeometry relative="1" as="geometry"/>
                </mxCell>
                <mxCell id="54" value="" style="rounded=1;whiteSpace=wrap;html=1;fontSize=50;strokeColor=#000000;arcSize=11;fillColor=#0050ef;fontColor=#ffffff;" vertex="1" parent="1">
                    <mxGeometry x="400" y="200" width="120" height="170" as="geometry"/>
                </mxCell>
                <mxCell id="55" value="&lt;u&gt;x&lt;/u&gt;&lt;sub&gt;1&lt;/sub&gt;" style="text;html=1;strokeColor=none;fillColor=none;align=center;verticalAlign=middle;whiteSpace=wrap;rounded=0;fontSize=30;fontColor=#000000;" vertex="1" parent="1">
                    <mxGeometry x="410" y="250" width="100" height="30" as="geometry"/>
                </mxCell>
                <mxCell id="56" value="&lt;span style=&quot;font-size: 21px;&quot;&gt;New Evidence&lt;/span&gt;" style="text;html=1;strokeColor=none;fillColor=none;align=center;verticalAlign=middle;whiteSpace=wrap;rounded=0;fontSize=21;fontColor=#000000;" vertex="1" parent="1">
                    <mxGeometry x="400" y="200" width="120" height="50" as="geometry"/>
                </mxCell>
                <mxCell id="57" value="&lt;span style=&quot;font-size: 21px&quot;&gt;Likelihood&lt;/span&gt;" style="text;html=1;strokeColor=none;fillColor=none;align=center;verticalAlign=middle;whiteSpace=wrap;rounded=0;fontSize=21;fontColor=#000000;" vertex="1" parent="1">
                    <mxGeometry x="400" y="340" width="120" height="30" as="geometry"/>
                </mxCell>
                <mxCell id="58" value="&lt;font style=&quot;font-size: 24px&quot;&gt;P( &lt;u&gt;x&lt;/u&gt;&lt;sub&gt;1&lt;/sub&gt;&lt;sub style=&quot;font-size: 24px&quot;&gt;&amp;nbsp;&lt;/sub&gt;| θ )&lt;/font&gt;" style="text;html=1;strokeColor=none;fillColor=none;align=center;verticalAlign=middle;whiteSpace=wrap;rounded=0;fontSize=24;fontColor=#000000;" vertex="1" parent="1">
                    <mxGeometry x="405" y="310" width="110" height="30" as="geometry"/>
                </mxCell>
                <mxCell id="76" style="edgeStyle=orthogonalEdgeStyle;html=1;exitX=1;exitY=0.5;exitDx=0;exitDy=0;entryX=0;entryY=0.5;entryDx=0;entryDy=0;fontSize=21;fontColor=#000000;endArrow=open;endFill=0;endSize=16;" edge="1" parent="1" source="59" target="68">
                    <mxGeometry relative="1" as="geometry"/>
                </mxCell>
                <mxCell id="59" value="" style="rounded=1;whiteSpace=wrap;html=1;fontSize=50;strokeColor=#000000;arcSize=11;fillColor=#a20025;fontColor=#ffffff;" vertex="1" parent="1">
                    <mxGeometry x="580" y="120" width="140" height="100" as="geometry"/>
                </mxCell>
                <mxCell id="60" value="&lt;span style=&quot;font-size: 21px&quot;&gt;Posterior&lt;/span&gt;" style="text;html=1;strokeColor=none;fillColor=none;align=center;verticalAlign=middle;whiteSpace=wrap;rounded=0;fontSize=21;fontColor=#000000;" vertex="1" parent="1">
                    <mxGeometry x="580" y="180" width="120" height="30" as="geometry"/>
                </mxCell>
                <mxCell id="61" value="&lt;font style=&quot;font-size: 24px&quot;&gt;P( θ&lt;sub style=&quot;font-size: 24px&quot;&gt;&amp;nbsp;&lt;/sub&gt;&lt;span style=&quot;font-size: 24px&quot;&gt;|&amp;nbsp;&lt;/span&gt;&lt;u&gt;x&lt;/u&gt;&lt;sub&gt;0&lt;/sub&gt;,&lt;sub&gt;&amp;nbsp;&lt;/sub&gt;&lt;u&gt;x&lt;/u&gt;&lt;sub&gt;1&lt;/sub&gt;)&lt;/font&gt;" style="text;html=1;strokeColor=none;fillColor=none;align=center;verticalAlign=middle;whiteSpace=wrap;rounded=0;fontSize=24;fontColor=#000000;" vertex="1" parent="1">
                    <mxGeometry x="580" y="140" width="140" height="30" as="geometry"/>
                </mxCell>
                <mxCell id="78" style="edgeStyle=orthogonalEdgeStyle;html=1;exitX=1;exitY=0.5;exitDx=0;exitDy=0;fontSize=21;fontColor=#000000;endArrow=open;endFill=0;endSize=16;" edge="1" parent="1" source="68">
                    <mxGeometry relative="1" as="geometry">
                        <mxPoint x="960" y="150" as="targetPoint"/>
                        <Array as="points">
                            <mxPoint x="910" y="90"/>
                            <mxPoint x="910" y="150"/>
                        </Array>
                    </mxGeometry>
                </mxCell>
                <mxCell id="68" value="" style="rounded=1;whiteSpace=wrap;html=1;fontSize=50;strokeColor=#000000;arcSize=11;fillColor=#60a917;fontColor=#ffffff;" vertex="1" parent="1">
                    <mxGeometry x="760" y="40" width="140" height="100" as="geometry"/>
                </mxCell>
                <mxCell id="70" value="Prior" style="text;html=1;strokeColor=none;fillColor=none;align=center;verticalAlign=middle;whiteSpace=wrap;rounded=0;fontSize=30;fontColor=#000000;" vertex="1" parent="1">
                    <mxGeometry x="800" y="100" width="60" height="30" as="geometry"/>
                </mxCell>
                <mxCell id="77" style="edgeStyle=orthogonalEdgeStyle;html=1;exitX=1;exitY=0.5;exitDx=0;exitDy=0;fontSize=21;fontColor=#000000;endArrow=open;endFill=0;endSize=16;" edge="1" parent="1" source="71">
                    <mxGeometry relative="1" as="geometry">
                        <mxPoint x="960" y="190" as="targetPoint"/>
                        <Array as="points">
                            <mxPoint x="910" y="285"/>
                            <mxPoint x="910" y="190"/>
                        </Array>
                    </mxGeometry>
                </mxCell>
                <mxCell id="71" value="" style="rounded=1;whiteSpace=wrap;html=1;fontSize=50;strokeColor=#000000;arcSize=11;fillColor=#0050ef;fontColor=#ffffff;" vertex="1" parent="1">
                    <mxGeometry x="760" y="200" width="120" height="170" as="geometry"/>
                </mxCell>
                <mxCell id="72" value="&lt;u&gt;x&lt;/u&gt;&lt;sub&gt;2&lt;/sub&gt;" style="text;html=1;strokeColor=none;fillColor=none;align=center;verticalAlign=middle;whiteSpace=wrap;rounded=0;fontSize=30;fontColor=#000000;" vertex="1" parent="1">
                    <mxGeometry x="770" y="250" width="100" height="30" as="geometry"/>
                </mxCell>
                <mxCell id="73" value="&lt;span style=&quot;font-size: 21px;&quot;&gt;New Evidence&lt;/span&gt;" style="text;html=1;strokeColor=none;fillColor=none;align=center;verticalAlign=middle;whiteSpace=wrap;rounded=0;fontSize=21;fontColor=#000000;" vertex="1" parent="1">
                    <mxGeometry x="760" y="200" width="120" height="50" as="geometry"/>
                </mxCell>
                <mxCell id="74" value="&lt;span style=&quot;font-size: 21px&quot;&gt;Likelihood&lt;/span&gt;" style="text;html=1;strokeColor=none;fillColor=none;align=center;verticalAlign=middle;whiteSpace=wrap;rounded=0;fontSize=21;fontColor=#000000;" vertex="1" parent="1">
                    <mxGeometry x="760" y="340" width="120" height="30" as="geometry"/>
                </mxCell>
                <mxCell id="75" value="&lt;font style=&quot;font-size: 24px&quot;&gt;P( &lt;u&gt;x&lt;/u&gt;&lt;sub&gt;2&lt;/sub&gt;&lt;sub style=&quot;font-size: 24px&quot;&gt;&amp;nbsp;&lt;/sub&gt;| θ )&lt;/font&gt;" style="text;html=1;strokeColor=none;fillColor=none;align=center;verticalAlign=middle;whiteSpace=wrap;rounded=0;fontSize=24;fontColor=#000000;" vertex="1" parent="1">
                    <mxGeometry x="765" y="310" width="110" height="30" as="geometry"/>
                </mxCell>
                <mxCell id="79" value="..." style="text;html=1;strokeColor=none;fillColor=none;align=center;verticalAlign=middle;whiteSpace=wrap;rounded=0;fontSize=51;fontColor=#000000;fontStyle=1" vertex="1" parent="1">
                    <mxGeometry x="960" y="140" width="60" height="30" as="geometry"/>
                </mxCell>
                <mxCell id="80" value="&lt;font style=&quot;font-size: 24px&quot;&gt;P( θ&lt;sub style=&quot;font-size: 24px&quot;&gt;&amp;nbsp;&lt;/sub&gt;&lt;span style=&quot;font-size: 24px&quot;&gt;|&amp;nbsp;&lt;/span&gt;&lt;u&gt;x&lt;/u&gt;&lt;sub&gt;0&lt;/sub&gt;,&lt;sub&gt;&amp;nbsp;&lt;/sub&gt;&lt;u&gt;x&lt;/u&gt;&lt;sub&gt;1&lt;/sub&gt;)&lt;/font&gt;" style="text;html=1;strokeColor=none;fillColor=none;align=center;verticalAlign=middle;whiteSpace=wrap;rounded=0;fontSize=24;fontColor=#000000;" vertex="1" parent="1">
                    <mxGeometry x="760" y="55" width="140" height="30" as="geometry"/>
                </mxCell>
            </root>
        </mxGraphModel>
    </diagram>
</mxfile>